<?xml version="1.0" standalone="no"?>
<!DOCTYPE svg PUBLIC "-//W3C//DTD SVG 20010904//EN"
 "http://www.w3.org/TR/2001/REC-SVG-20010904/DTD/svg10.dtd">
<svg version="1.0" xmlns="http://www.w3.org/2000/svg"
 width="1080.000000pt" height="1080.000000pt" viewBox="0 0 1080.000000 1080.000000"
 preserveAspectRatio="xMidYMid meet">
<metadata>
Created by potrace 1.16, written by Peter Selinger 2001-2019
</metadata>
<g transform="translate(0.000000,1080.000000) scale(0.100000,-0.100000)"
fill="#000000" stroke="none">
<path d="M0 5400 l0 -5400 5400 0 5400 0 0 5400 0 5400 -5400 0 -5400 0 0
-5400z m5595 3604 c7 -10 27 -17 51 -18 33 -1 39 -4 37 -22 -2 -19 3 -21 43
-21 33 0 44 3 40 13 -3 9 6 13 35 12 30 0 37 -3 29 -13 -7 -9 -2 -12 20 -12
17 0 30 6 30 13 0 9 9 9 38 2 20 -5 51 -12 67 -15 17 -3 37 -12 46 -20 17 -14
39 -14 50 0 10 13 58 -14 52 -29 -6 -16 13 -19 22 -4 10 16 25 12 25 -6 0 -10
6 -14 14 -11 7 3 19 0 25 -6 10 -9 17 -7 32 12 10 12 16 27 13 32 -3 5 2 9 10
9 9 0 13 -6 10 -14 -3 -9 6 -17 25 -24 16 -6 31 -8 34 -6 2 2 17 -2 33 -11 16
-8 38 -15 50 -15 11 0 24 -3 28 -7 4 -5 11 -8 14 -9 49 -5 102 -18 102 -24 0
-5 17 -14 38 -20 20 -6 46 -15 57 -20 11 -4 27 -11 35 -14 8 -3 22 -10 30 -16
15 -10 61 -28 70 -27 3 0 25 -11 50 -24 47 -24 51 -26 75 -28 8 0 15 -8 15
-16 0 -8 7 -16 15 -16 18 -2 22 -3 63 -20 17 -7 32 -19 32 -26 0 -7 12 -13 28
-14 15 0 36 -4 47 -9 18 -7 19 -8 3 -15 -10 -4 -18 -14 -18 -22 0 -12 3 -13
14 -4 16 13 67 5 78 -13 4 -6 2 -14 -5 -18 -18 -11 25 -51 46 -42 21 8 22 24
2 24 -8 0 -15 5 -15 10 0 6 8 10 19 10 18 0 35 -31 32 -57 -1 -7 3 -13 9 -13
6 0 8 5 5 10 -8 12 5 13 24 1 8 -5 11 -16 8 -25 -4 -10 -1 -16 8 -16 8 0 15 5
15 10 0 6 5 10 10 10 6 0 10 -6 10 -14 0 -10 12 -14 46 -13 32 1 57 -6 85 -23
37 -24 50 -40 30 -40 -6 0 -13 5 -16 10 -4 6 -11 8 -16 5 -5 -4 -23 4 -40 16
-21 15 -34 18 -41 11 -6 -6 -18 -8 -27 -5 -17 5 21 -30 51 -48 14 -7 16 -6 12
6 -5 11 -2 13 9 9 9 -3 13 -12 10 -21 -5 -12 -1 -14 18 -9 13 3 18 3 12 0 -7
-3 -13 -10 -13 -15 0 -6 7 -6 19 0 15 9 17 7 14 -13 -4 -17 3 -29 26 -45 17
-12 35 -19 41 -16 6 3 7 -1 4 -9 -6 -14 5 -21 29 -17 4 0 7 -3 7 -7 0 -13 43
-58 62 -65 9 -3 19 -1 22 6 3 7 3 2 0 -10 -4 -19 -1 -22 22 -20 15 1 29 -4 31
-10 3 -8 -3 -13 -14 -13 -17 -1 -17 -1 0 -11 10 -6 25 -8 33 -5 8 3 14 1 14
-4 0 -6 -4 -10 -10 -10 -5 0 -10 -4 -10 -10 0 -5 5 -10 10 -10 6 0 24 -15 41
-32 20 -22 32 -29 36 -21 3 10 9 9 20 -3 13 -13 14 -17 3 -24 -22 -14 78 -110
114 -110 27 0 28 -1 13 -17 -14 -17 -13 -21 16 -53 18 -20 32 -29 35 -22 7 21
22 13 22 -12 0 -35 38 -96 60 -96 24 0 54 -40 40 -54 -11 -11 26 -56 46 -56 8
0 11 -6 8 -15 -4 -10 0 -15 16 -15 17 0 20 -4 15 -20 -5 -14 -2 -20 9 -20 9 0
16 -5 16 -11 0 -6 9 -23 19 -38 12 -16 18 -36 15 -48 -3 -12 -1 -24 5 -27 6
-4 11 -2 11 4 0 6 5 8 11 4 8 -4 7 -9 -2 -15 -18 -11 2 -45 24 -41 9 1 18 -2
22 -8 3 -5 -1 -10 -9 -10 -18 0 -20 -8 -7 -29 5 -7 13 -11 19 -7 5 3 12 -1 15
-9 4 -10 1 -12 -10 -8 -14 5 -13 3 1 -20 10 -14 23 -28 31 -31 8 -3 11 -13 8
-24 -3 -14 1 -22 14 -26 26 -8 49 -46 33 -56 -16 -10 9 -65 30 -65 28 0 21
-32 -12 -57 -27 -20 -180 -98 -192 -98 -12 0 -171 -79 -263 -131 -59 -32 -108
-59 -110 -59 -2 0 -50 -31 -106 -68 -56 -38 -108 -67 -116 -64 -8 3 -11 0 -7
-6 3 -6 -11 -21 -31 -33 -21 -13 -44 -29 -52 -37 -7 -7 -20 -11 -27 -8 -8 3
-13 0 -11 -6 3 -18 -64 -48 -95 -42 -14 3 -29 0 -33 -6 -5 -9 -1 -10 16 -5 50
14 -14 -20 -71 -39 -30 -10 -64 -21 -75 -26 -52 -22 -168 -33 -357 -36 -118
-1 -208 2 -208 7 0 5 -19 -2 -42 -15 -80 -44 -183 -85 -280 -111 l-97 -25
-138 -140 c-110 -111 -144 -140 -165 -140 -46 0 -76 20 -82 55 -6 32 -82 140
-127 182 -42 38 -175 103 -236 116 -80 16 -228 13 -286 -7 -83 -28 -143 -64
-206 -121 -78 -73 -116 -131 -146 -228 -27 -86 -34 -216 -14 -278 23 -71 63
-165 78 -180 107 -112 136 -139 161 -149 17 -7 30 -17 30 -21 0 -5 -13 -35
-29 -67 -67 -134 -130 -333 -74 -233 58 104 94 152 106 143 26 -22 142 -75
191 -88 106 -28 227 -9 357 56 65 34 145 98 143 116 -2 17 10 11 119 -61 45
-30 108 -79 140 -110 32 -31 81 -67 110 -80 101 -45 101 -43 22 -125 -158
-163 -302 -246 -537 -310 -104 -28 -338 -32 -448 -8 -80 18 -139 36 -155 48
-5 4 -23 10 -40 14 -16 4 -58 20 -92 36 -54 26 -63 34 -72 67 -16 57 -14 66
24 96 33 26 94 127 78 127 -5 0 -14 -9 -21 -20 -27 -44 -86 -20 -232 96 -133
105 -356 234 -404 234 -14 0 -40 13 -58 28 -37 32 -42 34 -158 76 -90 33 -116
60 -107 109 3 19 5 18 12 -10 4 -18 15 -39 24 -47 16 -14 221 -88 238 -85 29
5 57 -4 77 -26 29 -31 78 -67 131 -96 l39 -21 -17 23 c-35 48 -104 196 -125
264 -37 123 -42 149 -48 255 -7 105 -7 105 -47 147 -22 23 -46 51 -53 62 -32
45 -333 301 -355 301 -13 0 0 -55 27 -117 8 -17 14 -51 13 -75 -1 -39 -4 -31
-40 77 -21 66 -39 127 -39 135 0 8 -7 24 -15 34 -24 32 -17 41 10 12 13 -14
30 -26 37 -26 7 0 31 -16 53 -36 22 -19 57 -47 78 -61 20 -14 37 -29 37 -33 0
-4 10 -11 23 -17 40 -19 161 -139 192 -192 17 -28 36 -51 43 -51 6 0 12 -4 12
-10 0 -5 4 -10 8 -10 4 0 16 43 26 96 33 176 104 344 200 469 98 128 256 254
414 328 173 81 432 108 639 68 166 -32 252 -67 388 -156 68 -44 213 -166 223
-186 2 -4 26 -38 55 -77 29 -39 60 -84 69 -101 15 -27 20 -29 58 -26 23 2 43
5 45 7 1 2 17 31 35 66 24 47 31 70 26 93 -6 32 -89 147 -112 156 -8 3 -14 11
-14 17 0 7 -16 27 -35 46 -20 19 -33 40 -31 47 3 7 -1 10 -8 7 -7 -3 -19 2
-26 11 -12 14 -12 16 1 15 27 -4 39 0 39 14 0 13 -41 29 -132 51 -15 4 -32 13
-38 20 -9 11 0 10 46 -1 31 -9 69 -14 84 -12 15 1 34 -5 44 -15 10 -9 21 -17
26 -17 22 0 60 21 59 32 0 10 -2 10 -6 1 -2 -7 -9 -13 -15 -13 -19 0 12 29 35
32 15 3 5 9 -33 21 -88 26 -105 26 -103 0 3 -22 -1 -23 -60 -14 -5 0 -5 6 -1
12 4 8 9 8 13 1 4 -7 12 -7 20 -2 11 6 8 14 -13 35 -20 20 -31 24 -38 17 -8
-8 -19 -6 -38 8 -15 11 -30 17 -33 14 -3 -3 -8 0 -12 7 -6 9 4 10 41 5 45 -7
48 -6 29 8 -18 14 -18 15 -2 16 10 0 29 -12 42 -26 17 -18 30 -24 44 -19 12 4
21 2 21 -4 0 -10 71 -33 135 -44 25 -5 31 -2 33 14 5 40 4 65 -3 87 -10 30 9
29 40 -3 l25 -24 0 28 c0 16 6 46 14 69 24 66 24 96 1 100 -11 2 -24 9 -30 14
-7 7 -1 9 18 6 30 -6 48 9 23 18 -9 3 -16 11 -16 16 0 6 7 7 15 4 10 -4 19 2
25 18 14 37 20 144 10 171 -7 20 -6 25 5 25 8 0 15 5 15 10 0 6 11 10 25 10
16 0 25 -6 25 -15 0 -13 -4 -14 -20 -5 -18 10 -20 8 -20 -30 0 -29 4 -39 12
-34 6 4 8 3 5 -2 -3 -6 -2 -28 3 -51 16 -67 19 -112 9 -118 -21 -14 -9 -41 20
-43 25 -2 29 2 35 29 6 31 7 32 26 14 11 -10 20 -24 20 -32 0 -15 26 -18 35
-4 3 5 1 12 -5 16 -17 10 -11 25 10 25 12 0 20 7 20 17 0 15 2 14 15 -3 15
-19 16 -19 13 1 -1 11 1 26 6 34 6 9 5 12 -5 9 -15 -5 -39 14 -39 31 0 14 13
14 28 -1 7 -7 12 -8 12 -2 0 10 -36 44 -46 44 -13 0 -34 30 -34 49 0 11 -5 23
-10 26 -6 4 -9 22 -6 41 2 24 -1 37 -11 41 -11 4 -11 7 2 17 9 6 16 16 15 21
-5 22 1 35 15 35 8 0 15 5 15 10 0 6 8 10 18 10 16 -1 16 -1 0 -14 -21 -15
-24 -28 -5 -24 12 3 17 -3 17 -22 0 -5 -6 -7 -14 -4 -13 5 -31 -24 -21 -34 3
-3 5 0 5 6 0 7 5 12 11 12 5 0 7 -4 4 -10 -7 -12 -3 -12 19 -4 9 3 13 10 10
15 -10 17 13 9 30 -10 16 -18 16 -19 -8 -25 -13 -3 -32 -3 -40 0 -10 4 -16 1
-16 -9 0 -8 6 -18 13 -20 6 -3 3 -6 -7 -6 -11 -1 -16 -4 -13 -8 4 -3 2 -12 -4
-20 -9 -10 -8 -13 7 -12 38 4 54 -1 54 -17 0 -8 5 -12 11 -9 5 4 19 -1 29 -10
18 -17 20 -16 29 6 5 13 12 32 15 42 3 10 10 16 15 12 6 -3 7 -13 4 -22 -4
-11 -3 -14 5 -9 18 11 15 46 -4 46 -10 0 -14 5 -10 15 3 9 -4 35 -15 59 -18
37 -25 42 -47 38 -16 -3 -23 -1 -18 6 4 6 13 9 21 5 8 -3 15 0 15 7 0 6 8 9
18 6 9 -3 24 -1 32 4 16 10 17 10 -52 14 -12 0 -23 7 -25 14 -5 12 7 16 40 13
19 -2 20 0 11 23 -3 9 -12 12 -22 9 -11 -5 -14 -2 -9 10 3 9 3 27 -2 39 -5 13
-5 33 0 45 10 26 2 56 -12 47 -5 -3 -7 -10 -3 -15 3 -6 3 -27 -1 -46 -5 -27
-9 -33 -16 -22 -6 10 -9 7 -9 -14 0 -15 5 -26 11 -25 6 2 14 -3 16 -9 3 -7 -2
-13 -10 -13 -8 0 -14 -7 -13 -16 0 -10 -8 -18 -21 -20 -22 -4 -33 19 -15 30 4
2 9 18 10 35 2 24 -1 29 -13 25 -8 -3 -13 -10 -10 -14 6 -10 -45 -44 -53 -36
-7 8 -12 31 -14 68 -1 24 -3 25 -25 17 -36 -14 -39 -11 -15 12 32 29 57 21 58
-18 2 -48 12 -69 27 -54 9 10 9 15 -3 24 -17 13 -15 45 2 62 8 7 9 5 5 -7 -3
-10 -2 -20 3 -23 6 -4 10 -1 10 4 0 6 7 11 15 11 8 0 15 4 15 10 0 5 -8 6 -17
3 -16 -6 -17 -5 -3 12 14 16 13 17 -5 11 -14 -4 -25 0 -34 13 -8 11 -20 17
-28 14 -16 -6 -18 13 -1 23 6 4 16 0 22 -8 14 -18 46 -31 46 -18 0 6 -6 10
-14 10 -9 0 -12 8 -8 25 2 15 0 25 -7 25 -6 0 -11 -4 -11 -10 0 -5 -10 -10
-22 -9 -13 0 -17 3 -10 6 32 13 0 47 -43 45 -16 -1 -17 0 -2 4 20 6 23 20 5
27 -7 2 -10 8 -6 12 4 4 14 2 23 -5 12 -10 15 -10 15 2 0 7 -9 21 -20 31 -28
24 -26 47 5 47 14 0 25 4 25 10 0 5 -7 7 -15 4 -8 -4 -15 -2 -15 4 0 5 -17 8
-38 7 -32 -2 -40 2 -50 23 -6 14 -9 22 -5 18 3 -3 13 0 22 7 14 11 14 10 1 -6
-13 -17 -12 -19 5 -17 11 1 22 1 25 0 16 -7 71 -6 76 1 3 5 -2 9 -10 9 -8 0
-18 9 -21 21 -7 22 -1 34 17 34 6 0 13 6 16 13 2 6 -1 12 -7 12 -6 0 -11 7
-11 16 0 8 5 12 11 9 7 -5 9 6 7 31 -2 27 -8 40 -20 42 -10 2 -18 -1 -18 -7 0
-6 7 -11 17 -11 14 0 14 -2 -2 -20 -10 -11 -21 -16 -24 -11 -4 5 -23 2 -46 -9
-22 -10 -44 -15 -50 -12 -5 3 5 11 23 16 23 6 31 14 27 24 -3 9 0 12 9 9 11
-4 13 -1 9 10 -5 12 -2 15 10 10 9 -3 17 -2 17 3 0 6 14 10 32 10 17 0 28 3
24 8 -4 4 -28 7 -52 7 -32 0 -44 -3 -44 -14 0 -8 -3 -12 -6 -8 -7 7 14 77 27
91 5 6 5 -3 0 -20 -7 -25 -6 -30 10 -31 11 -1 19 2 19 7 0 4 9 6 20 3 11 -3
20 0 20 6 0 6 11 8 30 5 19 -4 30 -2 30 5 0 6 -18 14 -39 17 -26 4 -54 20 -82
45 -44 40 -89 52 -89 24 0 -8 5 -15 10 -15 6 0 10 -5 10 -10 0 -7 -6 -7 -19 0
-26 13 -31 13 -31 -4 0 -7 -7 -19 -16 -27 -13 -11 -21 -10 -47 4 -45 24 -93
13 -113 -25 -9 -17 -11 -27 -5 -24 6 4 11 2 11 -3 0 -20 32 -11 37 9 3 11 10
20 15 20 6 0 7 -7 4 -16 -3 -9 -6 -25 -6 -37 0 -18 -2 -19 -10 -7 -8 12 -10
12 -16 -3 -9 -24 -18 -21 -55 18 -26 28 -38 33 -58 28 -28 -7 -43 -22 -35 -35
5 -7 -19 -13 -40 -9 -5 1 -13 -4 -17 -11 -7 -10 -9 -10 -9 0 0 6 -4 12 -10 12
-5 0 -10 -7 -10 -16 0 -8 -5 -12 -10 -9 -6 4 -21 0 -33 -8 -23 -15 -63 -17
-85 -3 -14 8 -13 67 2 77 4 4 -4 7 -18 7 -15 0 -29 -4 -32 -9 -3 -5 -13 -5
-24 1 -13 7 -21 7 -25 0 -3 -5 -3 -10 2 -10 4 0 14 -4 22 -9 12 -8 12 -11 0
-23 -8 -8 -20 -13 -28 -10 -9 3 -10 7 -2 11 7 5 4 15 -11 30 -19 21 -23 22
-33 8 -11 -16 -65 -19 -65 -3 0 4 -8 5 -17 1 -10 -4 -26 -7 -35 -7 -10 0 -18
-3 -18 -9 0 -5 -7 -9 -15 -9 -13 0 -39 -41 -38 -60 0 -3 -8 -13 -18 -22 -11
-10 -19 -15 -19 -11 0 4 -7 -3 -16 -15 -8 -12 -20 -20 -25 -17 -5 3 -6 -1 -2
-10 5 -14 0 -16 -33 -13 -33 2 -39 0 -40 -17 -1 -11 -2 -26 -3 -32 -1 -7 -5
-13 -11 -13 -5 0 -7 6 -4 13 5 13 -18 19 -83 19 -13 0 -23 4 -23 8 0 11 37 23
48 17 4 -3 18 1 32 9 l25 14 -27 -6 c-17 -4 -28 -2 -28 4 0 7 -10 8 -30 2 -18
-5 -32 -5 -35 1 -4 5 -1 9 4 9 6 0 11 9 11 20 0 11 -4 20 -10 20 -5 0 -10 -9
-10 -20 0 -30 -1 -34 -12 -47 -12 -15 -64 -11 -61 5 5 19 -11 14 -25 -9 -12
-19 -11 -20 10 -17 16 2 22 -2 20 -12 -2 -12 0 -12 11 2 12 15 14 15 24 -1 9
-14 9 -21 0 -30 -8 -8 -8 -11 0 -11 13 0 13 -64 1 -76 -4 -4 -25 -7 -48 -8
-22 -1 -40 -6 -40 -11 0 -5 15 -8 33 -5 58 7 102 5 102 -5 0 -5 8 -22 18 -36
17 -25 14 -59 -4 -59 -5 0 -9 -12 -9 -26 0 -31 23 -28 28 4 2 12 7 20 12 17 9
-6 2 -44 -13 -62 -7 -9 -5 -13 7 -13 9 0 16 -4 16 -8 0 -11 -70 -33 -82 -26
-4 3 -8 0 -8 -5 0 -6 15 -11 33 -11 l32 -1 -40 -15 c-22 -9 -45 -16 -51 -16
-6 -1 -8 -12 -6 -26 l5 -25 -31 21 c-35 26 -54 28 -46 7 7 -18 -12 -20 -20 -2
-3 6 -3 0 0 -15 3 -14 1 -37 -6 -50 l-11 -23 20 24 c19 21 21 21 22 5 0 -11 3
-14 6 -6 2 6 12 12 21 12 10 0 13 -3 7 -8 -6 -4 -11 -18 -12 -32 -1 -14 1 -19
4 -12 7 18 21 15 48 -12 23 -23 23 -25 6 -40 -10 -9 -26 -16 -36 -16 -18 0
-18 0 0 -14 16 -11 17 -17 7 -29 -10 -12 -9 -16 10 -20 22 -6 22 -6 -5 -31
-15 -14 -27 -30 -27 -36 0 -5 -8 -10 -17 -10 -11 -1 -5 -6 13 -14 37 -16 53
-36 28 -36 -12 0 -14 -4 -7 -12 27 -35 22 -44 -22 -44 -43 -1 -80 -18 -70 -34
3 -4 18 -7 34 -6 20 1 31 -3 33 -13 6 -24 -15 -58 -32 -53 -10 4 -9 0 4 -13
18 -18 18 -19 0 -32 -17 -12 -16 -13 7 -14 13 -1 2 -5 -26 -10 -27 -5 -57 -12
-65 -15 -8 -3 -33 -7 -55 -9 -22 -1 -94 -22 -160 -45 -66 -23 -130 -43 -142
-43 -11 -1 -19 -5 -17 -9 3 -4 -9 -6 -25 -5 -20 1 -30 7 -28 16 1 8 -4 16 -10
18 -7 3 -13 0 -13 -6 0 -6 -4 -11 -10 -11 -5 0 -10 7 -10 15 0 8 7 15 15 15 8
0 15 8 15 17 0 13 -3 14 -12 5 -15 -15 -52 4 -44 24 3 8 -1 14 -9 14 -17 0
-20 26 -5 35 18 11 10 26 -10 20 -11 -4 -20 -2 -20 4 0 6 5 11 10 11 6 0 10 7
10 16 0 9 -6 14 -12 11 -40 -14 -58 -17 -58 -9 0 5 12 12 28 16 32 7 68 33 59
42 -4 4 -13 1 -22 -6 -11 -9 -15 -9 -15 -1 0 7 -4 10 -9 7 -5 -3 -15 1 -22 10
-7 9 -22 20 -34 24 -16 7 -12 9 18 9 42 1 47 18 11 36 -12 6 -18 18 -16 29 3
11 0 16 -7 12 -6 -4 -11 -2 -11 4 0 7 8 9 19 5 11 -3 22 -1 26 5 3 5 -1 10 -9
10 -9 0 -16 5 -16 11 0 6 -6 9 -14 6 -7 -3 -19 0 -25 6 -8 8 -11 5 -11 -11 0
-15 -5 -20 -15 -16 -20 8 -19 16 6 42 18 20 19 24 5 38 -26 25 -47 16 -73 -35
-1 -1 -7 0 -13 4 -8 5 -5 14 9 29 12 12 18 26 14 29 -3 4 1 7 11 7 10 0 14 5
11 11 -4 6 2 13 14 16 12 3 21 12 21 20 0 13 -3 13 -16 2 -12 -10 -20 -10 -34
-2 -14 10 -24 7 -49 -12 l-32 -23 -40 26 c-37 24 -39 27 -19 34 12 4 26 6 30
3 5 -3 10 -2 13 2 2 5 2 3 1 -4 -5 -21 16 -26 35 -9 19 18 47 21 55 7 7 -11
66 16 66 30 0 13 -17 11 -26 -2 -4 -8 -9 -7 -15 2 -6 10 -9 11 -9 2 0 -7 -11
-13 -25 -13 -21 0 -25 5 -25 30 0 17 -4 30 -10 30 -5 0 -10 -6 -10 -14 0 -8
-11 -13 -27 -13 -24 0 -25 1 -10 12 9 7 17 18 17 26 -1 25 -38 59 -64 59 -31
0 -35 20 -6 27 11 3 20 14 20 24 0 11 5 19 11 19 8 0 8 5 -1 15 -7 8 -16 13
-20 10 -4 -3 -14 3 -21 12 -11 13 -11 17 -1 20 18 7 15 31 -7 42 -25 14 -35
42 -19 53 9 6 2 8 -19 5 -21 -2 -34 1 -37 10 -3 7 -13 13 -21 13 -12 0 -15 6
-10 22 6 17 4 20 -9 15 -12 -5 -16 0 -16 17 0 13 -15 39 -34 58 -41 42 -81 56
-94 33 -6 -12 -14 -14 -33 -7 -19 8 -30 6 -48 -9 -24 -20 -57 -26 -46 -10 3 5
-4 13 -16 16 -13 4 -18 12 -15 22 4 11 2 13 -9 9 -10 -4 -15 1 -15 14 0 18 11
25 34 21 5 -1 6 6 2 15 -5 13 -2 15 14 11 22 -6 29 18 8 25 -8 3 0 17 20 36
28 27 92 131 92 149 0 4 -15 -13 -32 -38 -66 -89 -78 -99 -104 -87 -13 6 -27
8 -32 3 -4 -4 -2 -9 3 -12 36 -13 40 -22 18 -43 -28 -25 -33 -25 -33 1 0 11
-5 17 -10 14 -6 -3 -22 8 -36 25 -15 17 -29 28 -32 26 -10 -10 -31 15 -25 30
4 10 -3 14 -26 14 -17 0 -31 -4 -31 -10 0 -5 8 -10 18 -10 14 0 15 -2 2 -10
-9 -6 -17 -5 -22 3 -13 21 -9 28 22 38 35 13 44 51 10 42 -11 -3 -20 -10 -20
-17 0 -6 -5 -4 -10 4 -8 13 -10 12 -10 -2 0 -10 -4 -18 -10 -18 -5 0 -7 -8 -3
-17 5 -15 3 -16 -7 -6 -11 10 -11 20 -1 55 7 24 18 49 25 57 9 12 8 13 -3 6
-11 -6 -13 -4 -7 10 3 10 11 49 16 87 6 38 15 78 20 88 7 12 6 20 -1 22 -12 4
-15 80 -4 98 5 8 11 6 20 -7 9 -11 10 -22 4 -28 -5 -5 -9 -15 -9 -22 0 -11 6
-10 30 2 17 9 28 20 25 25 -4 6 5 10 18 10 29 0 87 28 87 42 0 5 6 8 13 5 18
-6 77 28 104 60 12 16 22 22 23 16 0 -17 20 -17 20 0 0 9 9 12 28 10 15 -3 36
3 47 11 l20 15 -20 2 c-11 1 -26 1 -34 0 -11 -2 -11 0 0 13 12 13 17 13 37 0
19 -12 29 -13 57 -3 19 7 32 16 29 20 -2 5 -12 5 -21 2 -11 -4 -14 -3 -9 6 4
6 16 9 27 6 11 -4 19 -2 19 4 0 6 5 11 11 11 5 0 7 -4 4 -10 -3 -5 1 -10 9
-10 8 0 18 5 21 10 4 6 11 8 16 4 13 -8 72 16 82 33 5 7 13 10 19 7 13 -8 118
16 118 27 0 4 -6 10 -12 12 -10 4 -10 8 1 15 10 7 21 6 35 -4 26 -18 51 -18
68 -1 7 8 34 14 60 14 25 1 56 6 67 13 12 6 40 12 61 13 22 1 40 5 40 9 0 4
-6 8 -12 8 -7 0 -2 6 12 14 21 11 29 11 47 0 33 -20 64 -17 70 6 5 21 29 28
35 10 2 -5 22 -12 45 -16 41 -6 44 -5 56 24 10 23 16 29 27 22 8 -6 26 -10 41
-10 14 0 31 -6 38 -12 11 -11 13 -10 8 4 -5 14 3 18 46 22 29 3 84 6 122 6
120 1 117 0 104 16 -6 8 -8 14 -4 14 4 0 13 -7 20 -16z m-1979 -500 c-9 -8
-16 -23 -16 -31 0 -9 -33 -66 -73 -127 -102 -154 -100 -150 -135 -252 -48
-139 -71 -245 -88 -409 -27 -264 -73 -433 -185 -663 -37 -79 -94 -180 -125
-224 -32 -46 -62 -102 -70 -130 -7 -27 -17 -54 -22 -61 -14 -17 -20 -76 -8
-74 12 2 17 -61 5 -69 -17 -10 -49 17 -82 69 -39 61 -43 72 -96 272 -22 83
-58 213 -81 290 -38 135 -67 248 -91 365 -6 30 -22 86 -35 124 -26 73 -26 76
22 121 12 11 24 28 27 38 4 9 13 17 21 17 8 0 24 16 36 35 12 19 25 35 30 35
5 0 21 14 37 30 15 17 33 30 39 30 6 0 17 11 24 25 7 14 17 25 21 25 7 0 112
86 167 137 14 13 31 23 38 23 7 0 17 6 21 13 13 19 162 130 233 172 78 46 75
44 67 51 -4 4 -18 -1 -32 -10 -14 -9 -25 -13 -25 -9 0 15 343 200 373 202 17
1 17 0 3 -15z m2761 -560 c15 -14 14 -19 -1 -50 -9 -19 -16 -44 -16 -55 0 -11
-5 -30 -11 -41 -10 -18 -9 -20 5 -15 9 4 29 1 44 -5 l27 -11 -32 -8 c-25 -7
-31 -13 -26 -27 6 -15 5 -15 -10 -3 -15 12 -20 10 -42 -15 -19 -22 -24 -36
-19 -60 5 -26 2 -32 -15 -37 -15 -3 -21 -13 -21 -31 0 -14 -3 -26 -8 -26 -8 0
-24 -33 -47 -100 -8 -25 -24 -63 -35 -85 -31 -66 -50 -112 -50 -124 0 -6 -4
-19 -9 -29 -28 -51 -51 -111 -51 -130 0 -12 -4 -22 -10 -22 -5 0 -10 -6 -10
-14 0 -8 -5 -27 -12 -43 -6 -15 -10 -32 -9 -37 1 -5 -5 -16 -13 -25 -8 -9 -17
-27 -21 -41 -3 -14 -12 -33 -20 -43 -11 -16 -18 -17 -54 -7 -22 6 -43 15 -46
20 -3 5 -1 29 6 52 6 24 12 54 14 68 1 14 11 47 23 73 28 61 67 170 148 412
36 105 69 198 74 207 6 10 10 25 10 33 0 8 5 15 11 15 6 0 9 7 6 15 -4 8 -2
17 3 20 5 3 19 26 31 50 12 25 26 45 31 45 4 0 8 6 8 14 0 8 17 20 38 27 20 6
48 20 61 30 29 23 29 23 48 3z m-4014 -759 c1 -41 5 -71 9 -69 4 2 4 -11 1
-29 -3 -23 2 -47 16 -75 12 -23 21 -51 21 -62 0 -22 43 -110 85 -175 l26 -40
-6 50 c-3 28 -12 82 -20 120 -16 85 -29 195 -22 195 12 0 56 -254 59 -338 1
-29 8 -58 15 -64 18 -14 16 -48 -2 -48 -13 0 -23 14 -67 100 -7 14 -17 28 -23
32 -5 4 -6 8 -2 8 5 0 0 13 -9 29 -10 17 -21 28 -25 26 -4 -3 -10 11 -13 31
-4 19 -15 43 -25 53 -22 22 -42 167 -39 284 2 101 20 77 21 -28z m1253 -10
c18 -19 36 -35 41 -35 15 -1 65 -119 58 -139 -3 -10 -1 -31 5 -46 9 -23 7 -30
-11 -46 -12 -11 -18 -19 -14 -19 5 0 4 -5 -3 -12 -7 -7 -12 -20 -12 -30 0 -22
-16 -24 -24 -3 -3 8 -12 12 -21 9 -8 -3 -15 -2 -15 4 0 6 5 12 11 14 7 2 -2
29 -22 68 -21 39 -35 57 -37 47 -4 -21 -48 -23 -55 -3 -3 8 0 20 8 26 11 9 12
7 8 -9 -7 -27 9 -27 32 -1 10 12 25 18 32 16 7 -3 13 -1 13 4 0 5 -14 13 -32
18 -23 6 -34 16 -40 37 -8 33 -3 44 14 27 17 -17 26 -15 33 7 4 13 12 17 25
14 11 -3 20 -3 20 0 0 11 -45 53 -63 60 -19 7 -15 27 5 27 6 0 25 -16 44 -35z
m-67 -227 c50 -27 58 -52 27 -82 -15 -15 -18 -16 -13 -3 7 19 -8 33 -46 42
-16 4 -31 14 -34 21 -3 8 -15 14 -27 13 -20 0 -20 -1 -1 -9 19 -8 19 -9 -2 -9
-25 -1 -31 -16 -10 -24 9 -4 8 -8 -3 -16 -23 -17 -40 -13 -40 9 0 11 -7 20
-15 20 -9 0 -12 6 -8 17 4 11 3 14 -5 9 -7 -4 -12 -2 -12 4 0 6 6 13 14 16 9
3 12 13 9 22 -4 13 -2 12 10 -3 16 -20 16 -19 17 7 l0 28 48 -19 c26 -11 67
-30 91 -43z m-100 -95 c-3 -20 2 -24 16 -13 9 7 18 10 22 6 3 -3 1 -6 -5 -6
-7 0 -12 -7 -12 -15 0 -9 9 -15 24 -15 14 0 27 -4 31 -9 3 -5 21 -7 40 -4 32
5 35 4 28 -13 -7 -18 -6 -18 11 -1 17 17 17 18 -5 36 -15 12 -18 20 -11 25 6
4 20 -2 32 -14 17 -17 18 -23 8 -40 -11 -17 -10 -22 1 -29 9 -6 10 -11 2 -15
-6 -4 -11 -15 -11 -26 0 -13 -5 -17 -19 -13 -29 7 -34 -13 -9 -38 l23 -22 -46
6 c-25 3 -58 11 -74 17 -26 10 -27 12 -13 27 18 17 38 10 38 -13 0 -8 9 -14
21 -14 32 0 18 22 -30 46 -40 20 -41 22 -19 28 22 6 22 7 5 20 -19 15 -51 11
-42 -4 3 -5 1 -11 -4 -14 -5 -3 -11 8 -13 24 -4 27 -2 29 20 23 17 -4 23 -2
18 6 -4 6 -16 11 -27 11 -14 0 -19 7 -19 25 0 14 5 25 10 25 6 0 9 -3 9 -7z
m5255 -208 c20 -55 40 -109 46 -120 5 -11 21 -69 35 -130 14 -60 32 -137 40
-170 15 -63 45 -286 45 -336 0 -16 -5 -29 -11 -29 -8 0 -8 -5 1 -15 16 -19 5
-49 -16 -41 -49 19 -59 17 -77 -14 -10 -16 -23 -30 -30 -30 -8 0 -8 3 0 11 6
6 9 17 7 23 -2 6 5 22 16 34 11 12 17 22 13 23 -4 0 3 5 16 10 13 5 21 12 17
16 -3 4 -19 -2 -34 -13 -36 -27 -65 -38 -56 -21 4 6 14 20 22 30 15 17 14 17
-9 9 -13 -5 -23 -13 -22 -18 2 -14 -18 -34 -28 -28 -5 3 -9 14 -9 24 0 22 -54
54 -76 46 -8 -3 -14 -1 -14 5 0 5 -6 9 -13 7 -17 -4 -67 36 -67 53 0 11 -2 11
-8 1 -7 -9 -14 -8 -32 8 -32 28 -38 25 -10 -5 13 -14 29 -25 37 -25 7 0 12 -3
11 -7 -1 -5 6 -20 16 -35 10 -15 15 -31 12 -36 -6 -10 43 -48 56 -44 5 1 7 -4
5 -11 -1 -6 7 -12 18 -12 13 0 19 -6 17 -17 -1 -10 14 -28 38 -45 22 -15 42
-35 45 -43 6 -15 26 -32 166 -135 50 -38 66 -54 59 -65 -7 -11 -15 -9 -42 13
-18 15 -67 53 -108 84 -41 32 -97 79 -125 105 -27 26 -53 48 -57 48 -8 0 -101
97 -108 113 -13 30 -44 67 -56 67 -8 0 -14 7 -14 15 0 8 -4 15 -10 15 -5 0
-10 -5 -10 -11 0 -8 -5 -8 -15 1 -8 7 -12 16 -9 21 7 12 -13 11 -36 -1 -20
-11 -39 3 -20 15 16 10 2 25 -23 25 -16 0 -18 -3 -9 -9 11 -7 10 -10 -3 -15
-9 -3 -21 -4 -26 0 -5 3 -9 0 -9 -6 0 -6 -5 -8 -12 -4 -21 13 -62 14 -70 1 -4
-6 -11 -8 -15 -3 -4 4 2 15 14 23 l23 15 -24 19 c-29 23 -46 24 -46 4 0 -18
-16 -20 -23 -2 -4 9 -8 9 -15 -2 -6 -8 -17 -11 -26 -8 -8 3 -18 2 -21 -3 -4
-6 -15 -4 -28 4 -24 16 -44 7 -65 -29 -11 -19 -11 -19 -12 3 0 13 -6 22 -15
22 -8 0 -15 8 -16 18 0 11 -5 7 -14 -13 -8 -16 -14 -24 -15 -16 0 9 -8 12 -30
7 -16 -3 -43 -9 -60 -12 -16 -4 -30 -11 -30 -16 0 -5 -5 -6 -12 -2 -7 5 -9 1
-6 -12 4 -15 0 -20 -18 -22 -13 -1 -24 3 -24 8 0 6 5 10 10 10 6 0 10 8 10 18
-1 16 -1 16 -11 0 -12 -21 -32 -23 -59 -5 -17 10 -22 9 -30 -3 -6 -10 -24 -14
-64 -12 -38 1 -56 -2 -56 -10 0 -9 -3 -9 -11 -1 -7 7 -23 8 -46 3 -19 -5 -42
-6 -49 -3 -8 3 -14 -1 -14 -11 0 -19 -4 -20 -32 -5 -18 10 -24 8 -38 -11 -15
-19 -20 -21 -40 -10 -26 14 -90 7 -101 -12 -6 -9 -13 -7 -30 7 l-22 20 12 -22
c11 -22 10 -23 -29 -23 -30 0 -40 -4 -40 -16 0 -14 -3 -14 -15 -4 -11 9 -18
10 -29 1 -10 -9 -16 -8 -26 4 -17 20 -32 19 -53 -5 -22 -26 -34 -25 -41 4 -4
17 -15 26 -36 31 -31 7 -42 25 -15 25 8 0 15 -5 15 -11 0 -5 4 -8 9 -5 13 8 1
54 -17 61 -8 3 -19 0 -24 -7 -6 -11 -8 -11 -8 0 0 7 6 15 14 18 15 6 19 51 5
60 -5 3 -9 16 -9 29 0 37 41 43 280 39 118 -2 248 1 288 7 151 22 284 81 483
216 169 113 212 140 339 206 92 47 316 147 332 147 4 0 31 15 60 34 29 19 56
31 60 28 4 -4 23 -52 42 -107z m-6644 25 c9 -6 15 -28 17 -60 1 -28 10 -68 19
-88 10 -20 19 -54 20 -75 2 -25 10 -46 23 -58 12 -11 21 -30 21 -43 0 -28 44
-115 70 -137 11 -9 17 -19 14 -21 -2 -3 2 -11 11 -18 8 -7 15 -19 15 -28 0 -8
11 -30 25 -48 14 -18 25 -36 25 -39 0 -3 14 -18 30 -32 17 -13 30 -29 30 -34
0 -17 -26 -9 -40 12 -8 12 -39 50 -67 84 -81 97 -156 248 -198 400 -19 72 -40
140 -45 153 -15 36 -1 52 30 32z m4555 -664 c21 -22 21 -26 6 -42 -15 -16 -15
-16 2 -10 10 3 23 6 28 6 5 0 9 9 9 20 0 21 17 22 69 5 13 -4 23 0 29 11 5 9
12 12 15 7 9 -15 -25 -38 -55 -38 -31 1 -39 -22 -10 -31 9 -3 25 -10 35 -15
18 -10 37 -4 37 11 0 4 -9 6 -20 3 -23 -6 -26 3 -7 21 15 16 33 1 48 -42 11
-30 85 -82 118 -82 11 0 20 -4 19 -9 -2 -6 21 -26 51 -45 65 -42 161 -66 268
-66 43 0 84 -4 91 -9 8 -5 -6 -7 -35 -5 -26 2 -82 5 -123 7 -58 3 -97 13 -170
42 -52 20 -102 43 -110 50 -8 7 -46 30 -85 50 -38 21 -75 42 -82 47 -6 5 -24
13 -40 17 -15 5 -36 12 -47 16 -16 7 -17 5 -9 -11 10 -19 22 -77 44 -204 11
-67 13 -206 2 -247 -4 -19 -1 -25 16 -30 11 -3 21 -9 21 -14 0 -5 7 -9 15 -9
8 0 15 -4 15 -10 0 -5 53 -63 117 -127 65 -65 132 -137 150 -160 44 -58 63
-76 97 -91 15 -7 30 -22 33 -33 5 -17 11 -20 32 -14 14 3 34 6 44 6 9 0 15 4
12 8 -6 11 53 63 64 56 5 -2 12 2 15 11 4 10 13 13 26 9 12 -4 28 -1 36 6 12
10 13 9 9 -4 -5 -11 2 -17 23 -22 16 -3 33 -5 38 -4 5 1 27 0 49 -1 l40 -3
-50 -6 c-27 -4 -63 -2 -80 2 -62 18 -78 20 -71 9 3 -6 -2 -16 -11 -22 -14 -9
-11 -10 16 -4 23 4 31 3 27 -5 -4 -6 -12 -11 -17 -11 -6 0 -30 -9 -54 -20 -24
-11 -54 -19 -67 -19 -13 1 -30 -1 -39 -5 -9 -4 -32 6 -62 29 -25 19 -49 35
-54 35 -4 1 -28 25 -52 55 -163 205 -390 400 -646 555 -59 36 -119 75 -134 87
l-26 23 60 52 c33 28 98 91 145 139 47 48 92 90 100 92 34 12 64 6 85 -17z
m-709 -346 c98 -43 406 -224 460 -272 21 -19 22 -19 4 -96 -28 -123 -91 -282
-111 -282 -5 0 -26 6 -46 14 -21 7 -57 19 -80 25 -22 6 -63 26 -90 44 -26 18
-96 57 -155 85 l-107 52 23 48 c48 97 59 147 53 250 -3 54 -9 109 -12 125 -9
33 -2 34 61 7z m-3175 -176 c75 -67 250 -191 324 -230 22 -11 74 -40 115 -64
67 -38 185 -97 292 -144 55 -25 155 -62 325 -122 190 -66 213 -78 213 -107 0
-35 79 -182 107 -200 7 -4 13 -13 13 -19 0 -13 57 -84 117 -146 27 -28 47 -41
55 -36 17 11 48 12 42 2 -3 -4 -12 -8 -20 -8 -22 0 -16 -17 14 -39 28 -19 78
-19 66 0 -3 5 -2 9 3 8 28 -5 43 3 43 22 0 18 -2 19 -15 9 -12 -10 -15 -10
-15 3 0 9 5 19 10 22 6 3 10 11 10 16 0 6 -10 3 -22 -5 -33 -23 -40 -20 -33
14 7 34 -1 39 -21 13 -10 -14 -15 -15 -25 -6 -9 9 -9 19 0 44 11 32 11 32 -9
14 -11 -10 -23 -16 -26 -12 -11 11 35 40 64 41 17 1 28 -2 25 -6 -2 -5 3 -8
11 -8 9 0 16 -4 16 -10 0 -5 -7 -7 -15 -4 -9 4 -15 0 -15 -10 0 -9 3 -15 8
-15 18 3 32 -2 32 -12 0 -5 -5 -7 -12 -3 -6 4 -8 3 -5 -3 4 -6 20 -13 37 -16
21 -5 31 -14 36 -32 7 -27 21 -33 29 -12 3 6 21 13 41 14 20 1 34 0 33 -2 -2
-2 -50 -26 -106 -55 -98 -49 -126 -68 -83 -57 12 3 20 0 20 -7 0 -6 13 -19 29
-29 32 -19 56 -23 46 -8 -3 6 4 9 15 8 20 -1 29 -17 9 -17 -5 0 -8 -4 -5 -9 3
-5 15 -7 26 -4 14 4 21 -1 25 -20 5 -17 18 -29 37 -36 39 -14 41 -14 32 1 -5
7 -3 8 6 3 10 -6 12 -4 7 9 -5 12 -2 19 11 23 10 2 18 13 19 24 2 24 -9 24
-32 -1 -10 -11 -23 -20 -29 -20 -6 0 -5 4 3 9 8 5 10 14 6 21 -5 9 -4 11 4 6
6 -4 24 6 42 23 31 32 51 43 30 17 -8 -10 -9 -16 -1 -21 5 -3 10 -1 10 4 0 6
5 11 12 11 6 0 4 -8 -6 -19 -13 -14 -14 -20 -4 -23 8 -3 -1 -17 -25 -37 -20
-18 -37 -39 -37 -47 0 -17 17 -18 23 -1 3 7 6 5 6 -5 1 -27 19 -21 36 11 11
22 12 30 2 34 -8 2 -7 8 4 20 15 15 17 14 17 -11 0 -15 -3 -31 -7 -37 -4 -5
-13 -23 -20 -39 -11 -26 -11 -28 4 -16 21 18 28 8 16 -23 -7 -17 -7 -28 -1
-32 6 -4 10 5 10 19 0 21 5 26 25 26 16 0 25 -6 25 -16 0 -8 4 -13 9 -10 5 3
14 -9 20 -26 10 -28 9 -35 -6 -45 -9 -7 -20 -13 -25 -13 -4 0 -8 -7 -8 -15 0
-8 -5 -15 -11 -15 -6 0 -9 6 -6 14 4 10 0 12 -14 9 -15 -4 -17 -8 -8 -19 9
-11 9 -14 0 -14 -7 0 -9 -5 -5 -11 4 -8 9 -7 16 2 7 11 11 11 15 1 2 -6 10 -9
16 -6 8 5 8 2 0 -7 -17 -18 -16 -32 1 -26 8 3 20 -1 26 -9 10 -11 10 -14 -1
-14 -10 -1 -10 -3 2 -10 10 -6 15 -21 14 -40 -2 -26 1 -31 17 -27 15 4 18 1
13 -14 -4 -11 -2 -19 4 -19 6 0 11 4 11 9 0 12 39 21 46 10 3 -5 1 -9 -4 -9
-13 0 -10 -53 3 -62 6 -4 13 2 17 15 5 20 6 19 7 -6 1 -27 -1 -28 -29 -22 -19
4 -30 3 -30 -4 0 -6 -5 -11 -11 -11 -6 0 -9 9 -6 19 3 13 0 18 -12 16 -9 -1
-15 -8 -13 -15 1 -6 -1 -9 -6 -6 -4 3 -20 -3 -35 -13 l-27 -18 20 -18 c20 -18
21 -18 14 0 -7 17 -6 18 8 5 9 -8 12 -18 6 -21 -5 -3 -2 -12 7 -19 8 -7 15
-16 15 -21 0 -9 -30 13 -61 45 -10 11 -22 16 -26 12 -4 -4 -2 -11 6 -15 10 -6
8 -10 -5 -15 -16 -6 -16 -8 -4 -16 8 -6 10 -10 4 -10 -7 0 -14 -10 -17 -22 -5
-17 -9 -19 -20 -9 -8 6 -22 8 -32 5 -13 -5 -16 -2 -13 12 2 11 13 20 26 22 12
2 22 7 22 12 0 5 -6 7 -13 4 -7 -2 -21 2 -32 10 -17 13 -18 15 -3 16 9 0 18
-6 21 -12 2 -7 8 -9 13 -5 10 10 -22 37 -43 37 -7 0 -13 -8 -13 -17 0 -10 -9
-31 -20 -48 l-20 -30 0 28 c0 19 5 27 17 27 15 0 14 2 -3 14 -10 8 -20 10 -22
5 -2 -5 -10 -9 -18 -9 -8 0 -14 -4 -14 -10 0 -5 -9 -2 -20 7 -18 16 -18 18 -2
33 16 16 18 16 24 -2 9 -23 28 -15 28 13 0 10 5 19 10 19 6 0 10 -4 10 -10 0
-13 57 -13 65 1 11 17 -3 23 -20 9 -12 -10 -16 -9 -21 4 -3 9 -10 13 -15 10
-5 -3 -9 0 -9 5 0 6 6 11 13 11 7 0 21 6 32 13 16 13 15 14 -14 9 -30 -4 -31
-3 -22 20 7 19 5 27 -10 36 -14 9 -17 9 -14 -1 3 -6 -6 -17 -20 -23 -18 -9
-25 -9 -28 0 -3 7 -11 5 -24 -6 -22 -20 -38 -24 -27 -6 4 7 3 8 -4 4 -15 -9
-15 -33 0 -42 6 -4 24 -8 40 -9 21 -1 28 3 28 16 0 10 6 21 13 25 6 4 9 4 5
-1 -4 -4 -3 -15 2 -25 8 -14 3 -19 -30 -29 -35 -10 -42 -9 -60 9 -11 11 -26
20 -32 20 -9 0 -8 -3 2 -10 12 -8 12 -10 -3 -16 -14 -5 -15 -9 -6 -21 9 -10 9
-17 1 -25 -16 -16 6 -35 37 -31 14 2 32 0 39 -5 17 -12 4 -42 -19 -42 -12 0
-16 -5 -13 -15 4 -8 10 -12 15 -9 5 3 9 1 9 -4 0 -5 -12 -9 -27 -9 -15 0 -29
-6 -31 -12 -7 -20 -27 -12 -39 16 -15 32 -17 103 -3 103 16 0 12 15 -10 40
-11 13 -20 31 -20 42 0 10 -4 18 -9 18 -5 0 -7 -9 -4 -20 6 -22 -12 -28 -20
-7 -4 9 -6 9 -6 0 -1 -7 13 -19 29 -28 31 -16 36 -30 20 -55 -8 -13 -10 -13
-10 2 0 9 -5 20 -12 24 -8 5 -9 2 -5 -9 8 -22 -13 -72 -24 -55 -10 15 -40 -7
-34 -25 3 -10 13 -98 17 -154 1 -7 8 -15 16 -18 11 -4 13 1 8 20 -4 14 -2 25
4 25 18 0 10 49 -11 69 l-21 20 36 -3 c24 -2 35 1 33 8 -2 6 -15 10 -28 9 -23
-3 -23 -2 -5 12 27 20 33 19 40 -8 3 -12 15 -33 27 -45 11 -13 18 -26 14 -30
-4 -4 -13 2 -21 12 -11 16 -14 17 -14 4 0 -9 5 -18 11 -20 7 -2 7 -12 0 -31
-14 -35 -14 -57 -1 -57 6 0 10 13 10 29 0 36 17 50 23 19 4 -19 4 -18 6 5 1
25 22 36 23 12 0 -19 19 -34 35 -28 11 5 14 3 8 -6 -4 -7 -18 -11 -31 -8 -16
3 -24 0 -24 -9 0 -8 9 -14 21 -14 11 0 18 -3 16 -7 -3 -5 6 -9 19 -9 15 -1 23
3 21 10 -3 6 -10 10 -16 8 -8 -1 -7 4 1 18 14 22 33 28 25 8 -3 -9 7 -13 29
-14 19 0 34 4 34 10 0 6 5 3 11 -7 5 -9 7 -23 3 -30 -4 -7 -4 -8 2 -2 5 6 24
27 43 47 33 36 38 67 6 34 -13 -13 -20 -13 -36 -3 -17 10 -22 9 -30 -5 -12
-22 -27 -22 -67 -2 -37 18 -39 25 -12 42 17 11 20 10 20 -7 0 -21 36 -35 47
-19 3 6 1 8 -4 5 -6 -4 -16 -1 -22 6 -8 11 -5 13 18 9 23 -3 33 2 46 22 9 14
13 31 9 38 -4 7 -4 10 1 6 4 -4 14 -3 20 2 9 7 16 6 25 -5 10 -13 9 -15 -8
-15 -23 0 -42 -22 -25 -27 6 -2 9 -14 6 -26 -4 -21 -4 -21 10 -4 9 10 21 15
31 11 9 -3 23 -1 31 6 16 14 45 7 45 -10 0 -7 -8 -9 -19 -5 -11 3 -22 1 -26
-5 -3 -6 -11 -8 -16 -5 -5 4 -9 -1 -9 -9 0 -8 5 -18 10 -21 6 -3 10 1 10 9 0
22 9 20 38 -6 l25 -23 -12 23 c-9 17 -9 22 1 21 16 -1 56 -17 44 -18 -5 -1 -2
-8 5 -17 12 -15 11 -16 -11 -9 -24 7 -24 6 -8 -10 16 -17 18 -17 52 3 30 18
36 19 36 6 0 -11 6 -13 20 -9 14 4 20 2 20 -9 0 -8 3 -21 6 -30 5 -12 0 -16
-20 -16 -14 0 -26 -5 -26 -10 0 -6 15 -9 33 -8 29 3 32 0 29 -21 -3 -18 0 -22
12 -18 9 4 20 -1 26 -11 9 -15 10 -15 16 6 4 13 14 22 25 22 25 0 24 -12 -2
-28 -17 -11 -20 -20 -16 -50 3 -20 3 -31 0 -24 -5 12 -33 17 -33 5 0 -15 33
-41 47 -36 9 4 16 -2 20 -16 3 -11 9 -21 14 -21 5 0 9 -4 9 -9 0 -5 -9 -7 -20
-4 -21 6 -25 -3 -11 -26 7 -11 13 -12 23 -3 8 6 29 9 49 6 32 -5 36 -10 51
-62 9 -31 16 -58 14 -59 -6 -7 -76 -33 -76 -28 0 2 17 13 38 24 20 11 31 20
24 21 -7 0 -30 11 -52 25 -37 23 -90 32 -122 20 -9 -4 -13 -18 -11 -43 2 -20
0 -31 -3 -24 -3 6 -13 12 -22 12 -14 -1 -13 -4 4 -19 21 -17 21 -18 3 -29 -16
-10 -19 -9 -19 4 0 8 -4 12 -10 9 -5 -3 -10 -1 -10 5 0 6 -4 9 -9 5 -6 -3 -13
0 -18 7 -4 7 -19 22 -32 33 l-24 20 14 -23 c8 -12 17 -22 21 -22 5 0 8 -8 7
-17 0 -11 -3 -13 -6 -5 -7 17 -33 15 -33 -3 0 -8 -4 -15 -10 -15 -5 0 -10 5
-10 10 0 18 -20 11 -21 -7 -1 -16 -2 -16 -6 0 -3 12 -11 16 -21 13 -15 -5 -15
-4 1 8 21 16 22 33 3 52 -21 20 -28 17 -21 -7 6 -18 4 -20 -15 -14 -12 4 -32
4 -45 1 -19 -5 -23 -12 -21 -41 1 -30 -2 -35 -21 -35 -13 0 -23 6 -24 13 0 8
-2 8 -5 1 -3 -7 -14 -10 -24 -7 -26 7 -25 -5 0 -27 12 -11 17 -21 11 -24 -6
-4 -18 5 -27 19 -22 34 -64 35 -64 0 0 -13 7 -30 15 -37 9 -7 24 -21 34 -31
23 -22 63 -30 73 -14 6 9 8 9 8 -1 0 -7 -7 -15 -16 -19 -15 -6 -15 -7 1 -19 9
-7 15 -17 12 -21 -3 -5 5 -22 18 -39 13 -16 24 -23 25 -16 0 6 10 12 21 12 16
0 20 5 16 20 -8 30 6 24 25 -11 l18 -30 -32 3 c-20 2 -33 -2 -36 -11 -3 -9 0
-12 10 -9 9 4 22 -4 33 -19 18 -23 20 -23 32 -8 11 16 13 15 19 -11 4 -16 17
-44 31 -61 21 -28 26 -31 43 -21 15 10 22 10 32 0 19 -19 30 -14 18 8 -6 10
-35 53 -65 95 -44 61 -53 80 -46 98 10 26 0 57 -23 77 -10 7 -22 22 -27 32 -9
18 -8 18 10 8 12 -6 21 -15 21 -20 0 -6 7 -10 15 -10 8 0 15 -4 15 -10 0 -5
12 -20 27 -34 28 -26 26 -49 -2 -26 -26 22 -16 -4 15 -37 36 -39 40 -56 5 -23
-19 18 -25 20 -25 8 0 -8 11 -27 25 -42 14 -15 25 -30 25 -34 0 -4 16 -27 36
-51 32 -41 46 -50 81 -53 6 -1 9 -7 6 -14 -5 -14 12 -27 41 -31 19 -3 19 -2
-2 20 -12 13 -22 27 -22 32 0 5 -7 17 -17 27 -9 11 -11 18 -5 18 7 0 12 -4 12
-10 0 -5 6 -10 14 -10 7 0 19 -13 26 -30 7 -16 21 -39 31 -51 10 -12 19 -27
19 -33 0 -6 -6 -4 -13 4 -13 16 -77 23 -77 9 0 -5 6 -8 13 -6 6 1 11 -6 9 -15
-1 -10 6 -23 18 -30 23 -15 26 -28 5 -28 -8 0 -33 26 -56 58 -23 31 -44 59
-45 61 -8 9 -34 -10 -28 -21 4 -6 8 -24 9 -40 2 -22 -1 -28 -11 -24 -12 5 -12
2 -3 -16 9 -17 13 -18 20 -7 7 11 10 9 15 -9 5 -18 9 -20 15 -10 7 11 9 10 9
-1 0 -11 4 -9 15 5 8 10 15 17 16 14 8 -36 2 -56 -22 -81 -23 -23 -34 -28 -59
-23 -29 6 -42 24 -17 24 6 0 21 7 31 15 16 12 17 18 8 27 -9 9 -12 8 -12 -5 0
-9 -6 -17 -14 -17 -8 0 -21 -3 -30 -6 -11 -4 -16 0 -16 13 0 10 -10 23 -22 28
-12 6 -24 16 -26 24 -3 8 0 11 7 7 6 -4 11 -1 11 6 0 7 12 -2 26 -19 14 -18
33 -33 42 -33 14 1 12 5 -7 20 -13 11 -20 20 -17 20 4 0 -1 14 -11 30 -9 17
-23 30 -30 30 -7 0 -13 5 -13 10 0 6 -8 5 -20 -2 -11 -7 -20 -18 -20 -25 0 -7
-4 -13 -10 -13 -5 0 -10 6 -10 14 0 8 -6 17 -12 20 -9 4 -8 5 2 5 36 -3 50 2
50 17 0 11 -5 14 -16 10 -9 -3 -19 -6 -23 -6 -5 0 -20 -11 -35 -25 -25 -23
-26 -27 -14 -52 16 -33 39 -43 31 -14 -3 12 -9 21 -14 21 -5 0 -9 8 -9 17 0
14 3 14 23 -5 16 -15 26 -18 39 -11 14 8 16 7 12 -6 -4 -10 2 -22 16 -32 16
-11 19 -18 10 -27 -7 -7 -13 -7 -18 -1 -10 14 -32 17 -32 5 0 -6 -6 -10 -14
-10 -14 0 -42 -27 -35 -34 2 -3 23 -1 47 4 35 6 42 5 38 -6 -3 -8 -1 -14 4
-14 6 0 10 5 10 10 0 6 5 10 10 10 6 0 10 -8 10 -19 0 -10 7 -24 15 -31 8 -7
15 -21 15 -32 0 -14 5 -18 15 -14 9 3 15 0 15 -8 0 -8 -6 -16 -12 -19 -7 -2
-10 -7 -7 -11 4 -4 14 0 22 9 10 9 18 11 22 5 3 -5 1 -10 -4 -10 -16 0 -13
-26 4 -40 13 -11 15 -6 15 38 0 51 15 76 30 51 7 -10 11 -10 24 1 9 7 20 10
23 6 4 -4 1 -11 -6 -15 -8 -5 -10 -14 -6 -21 5 -8 3 -11 -6 -8 -8 3 -19 -2
-26 -11 -15 -19 -17 -45 -4 -36 5 3 13 0 17 -6 4 -8 9 -7 15 2 6 10 9 8 9 -9
0 -14 4 -21 11 -16 6 3 9 16 7 29 -3 14 0 22 9 22 8 0 11 -7 8 -15 -21 -55
-11 -86 15 -44 10 14 11 13 7 -11 -5 -31 0 -34 19 -9 13 16 15 16 27 0 8 -10
16 -15 19 -13 3 3 16 1 29 -4 13 -5 18 -10 12 -10 -7 -1 -13 -8 -13 -17 0 -8
-5 -12 -10 -9 -6 4 -8 10 -6 14 3 3 -4 7 -15 7 -10 0 -19 -3 -19 -7 0 -17 -46
-18 -58 -1 -9 11 -15 13 -20 6 -9 -14 -72 -14 -72 0 0 6 -5 5 -12 -2 -17 -17
-48 -15 -48 3 0 8 -4 15 -10 15 -5 0 -10 -4 -10 -10 0 -5 -4 -10 -10 -10 -5 0
-10 7 -10 16 0 8 -5 12 -10 9 -6 -4 -8 -11 -4 -16 14 -23 -265 11 -456 56 -58
14 -118 26 -135 28 -16 2 -41 9 -55 14 -14 6 -86 30 -160 53 -74 24 -146 49
-160 56 -59 30 -127 57 -150 59 -14 1 -37 3 -52 4 -30 1 -38 17 -12 23 8 2
-20 21 -63 43 -43 22 -103 55 -133 73 -44 28 -57 32 -72 23 -24 -15 -26 -14
-30 11 -2 14 -24 37 -58 60 -30 20 -64 44 -75 53 -46 36 -61 44 -74 45 -8 0
-20 8 -28 18 -10 12 -16 13 -19 5 -4 -9 -10 -10 -24 -1 -13 8 -16 16 -10 23
13 15 -65 79 -86 71 -9 -3 -12 -1 -9 4 3 6 -2 10 -12 10 -15 0 -16 2 -3 10 13
8 11 12 -10 27 -32 22 -113 96 -164 148 -22 22 -45 39 -52 37 -22 -5 -107 45
-89 52 8 3 22 3 30 0 8 -4 15 -1 15 5 0 6 -6 11 -12 11 -7 0 -25 19 -40 43
-15 23 -50 65 -76 93 -27 28 -52 59 -55 68 -4 10 -16 20 -27 23 -11 3 -20 14
-20 25 0 24 -60 107 -78 108 -7 0 -10 5 -7 10 4 6 1 18 -6 27 -7 8 -18 23 -24
33 -86 147 -132 219 -142 220 -7 0 -10 6 -7 13 3 8 -17 56 -43 108 -27 52 -59
118 -71 147 -12 28 -27 52 -33 52 -6 0 -6 -7 1 -20 7 -13 7 -20 1 -20 -12 0
-31 33 -31 54 0 10 6 13 15 10 8 -4 15 -1 15 5 0 6 -6 11 -13 11 -7 0 -20 9
-29 19 -14 17 -15 26 -3 87 20 104 37 134 126 228 45 47 76 86 70 86 -6 0 9
33 34 73 24 40 65 127 91 193 25 65 53 132 61 148 26 51 71 181 83 243 33 165
94 333 120 333 4 0 41 -30 81 -66z m-731 -217 c12 4 12 3 2 -5 -11 -7 -10 -10
3 -16 26 -10 37 -7 29 7 -5 8 -3 8 9 -2 9 -7 14 -17 11 -23 -7 -11 15 -40 26
-33 4 2 12 -7 19 -21 7 -17 8 -23 0 -19 -6 4 -1 -11 10 -34 12 -23 26 -41 31
-41 6 0 10 -5 10 -11 0 -5 -4 -7 -10 -4 -5 3 -10 1 -10 -4 0 -6 7 -11 15 -11
17 0 20 -16 5 -25 -5 -3 -10 -1 -10 6 0 10 -3 10 -12 1 -9 -9 -7 -17 8 -33 10
-13 13 -19 5 -14 -11 6 -12 2 -7 -21 13 -51 26 -138 25 -169 -1 -33 0 -36 -35
115 -8 36 -25 88 -38 115 -13 28 -29 66 -37 85 -20 54 -50 101 -60 94 -5 -3
-6 1 -3 9 3 8 -6 28 -20 45 -32 37 -34 53 -3 25 12 -11 29 -18 37 -16z m-120
-32 c0 -8 6 -15 13 -16 33 -2 62 -11 65 -19 2 -6 12 -10 23 -10 15 0 18 -5 15
-24 -3 -18 -1 -23 10 -19 8 3 18 -6 25 -24 6 -15 17 -43 25 -60 7 -18 11 -33
8 -33 -13 0 -45 40 -39 49 3 7 -2 11 -15 11 -13 0 -19 -4 -14 -11 4 -7 0 -9
-12 -6 -11 4 -32 9 -49 13 -26 6 -28 5 -18 -8 7 -8 10 -18 6 -21 -3 -4 1 -7 9
-7 9 0 21 -14 27 -31 15 -43 14 -62 -3 -56 -11 4 -11 1 -2 -19 6 -13 14 -24
19 -24 4 0 7 -8 7 -17 0 -10 7 -27 15 -37 8 -11 15 -29 15 -41 0 -20 5 -40 51
-200 11 -38 22 -81 25 -95 3 -14 7 -32 10 -41 2 -9 0 -27 -5 -40 -9 -23 -10
-23 -10 -2 -1 12 -5 23 -9 25 -5 2 -28 71 -51 153 -53 184 -78 248 -135 339
-47 76 -56 130 -34 189 8 20 8 35 -1 53 -6 14 -9 30 -6 35 10 15 35 10 35 -6z
m6272 -467 c4 -10 11 -10 34 0 22 10 26 11 17 1 -10 -10 -2 -18 37 -41 27 -15
55 -38 61 -51 17 -32 49 -60 83 -74 50 -19 6 -15 -74 7 -112 31 -158 50 -230
94 -69 42 -108 72 -80 62 12 -5 80 2 142 13 3 0 8 -5 10 -11z m-3947 -58 c-4
-14 -2 -20 9 -20 8 0 18 -10 22 -22 3 -12 12 -28 19 -35 7 -7 15 -18 18 -25 4
-10 7 -11 18 0 8 7 9 12 2 12 -6 0 -9 9 -6 20 4 16 11 19 27 14 19 -6 20 -5 6
12 -12 14 -7 13 25 -6 63 -38 279 -178 292 -190 7 -5 20 -10 31 -10 13 0 21
-12 29 -41 11 -41 11 -41 -15 -34 -14 3 -42 19 -61 34 -20 16 -47 32 -61 36
-29 9 -116 79 -179 144 -24 25 -42 39 -39 31 18 -53 19 -60 6 -55 -8 3 -25 -6
-38 -20 -28 -30 -40 -32 -40 -5 0 13 -5 18 -15 14 -18 -7 -20 12 -2 20 6 3 1
3 -11 0 -21 -5 -23 -3 -17 15 5 17 2 21 -16 21 -21 0 -22 1 -4 20 18 20 17 20
-13 20 l-31 0 20 35 c23 39 34 46 24 15z m2980 -10 c-3 -5 -1 -10 4 -10 6 0
11 5 11 11 0 8 4 8 15 -1 8 -6 19 -9 24 -6 5 4 13 1 16 -5 4 -5 13 -8 20 -5
15 5 28 -21 18 -37 -4 -6 0 -8 9 -4 9 3 32 -6 54 -23 31 -22 39 -34 38 -59 0
-17 -4 -34 -7 -38 -14 -13 -6 -24 13 -18 14 5 20 2 20 -9 0 -18 2 -19 24 -10
13 5 14 9 5 20 -9 11 -8 14 4 14 8 0 18 6 21 13 3 6 3 2 0 -10 -3 -13 -1 -23
5 -23 6 0 11 4 11 9 0 5 7 12 16 15 10 4 13 2 8 -6 -5 -7 1 -9 20 -6 29 6 36
-6 9 -16 -12 -5 -13 -10 -5 -18 8 -8 8 -15 1 -24 -12 -15 -39 -7 -56 15 -6 9
-15 12 -20 7 -4 -5 -2 -11 5 -13 14 -5 16 -33 2 -33 -5 0 -10 5 -10 10 0 6 -4
10 -10 10 -5 0 -6 -7 -3 -17 4 -11 3 -14 -5 -9 -7 4 -12 2 -12 -3 0 -6 9 -11
19 -11 11 0 23 -9 26 -21 7 -21 7 -21 24 3 9 13 23 22 31 21 9 -2 21 10 29 29
10 21 16 27 19 18 3 -8 12 -20 21 -27 14 -11 13 -12 -9 -13 -23 -1 -23 -2 -5
-10 18 -8 18 -9 2 -9 -10 -1 -15 -6 -12 -11 3 -6 -1 -17 -9 -26 -18 -18 -20
-30 -6 -39 6 -3 10 -11 10 -16 0 -6 -4 -7 -10 -4 -13 8 -13 -1 1 -26 5 -11 14
-17 18 -14 5 3 11 -2 15 -10 10 -26 36 -17 43 15 6 30 17 38 28 20 7 -12 53 7
80 34 13 13 15 21 7 24 -7 2 -12 11 -12 19 0 9 6 13 14 10 7 -3 18 -1 23 4 7
7 12 3 16 -10 3 -12 1 -19 -4 -15 -5 3 -9 0 -9 -5 0 -6 5 -11 10 -11 6 0 10
-4 10 -10 0 -5 -7 -10 -15 -10 -8 0 -15 -4 -15 -10 0 -5 -8 -10 -17 -11 -10 0
-5 -5 12 -11 17 -5 40 -9 53 -9 19 1 22 -3 17 -19 -4 -12 -2 -20 5 -20 7 0 9
-8 5 -20 -4 -13 -1 -22 10 -26 10 -4 13 -13 9 -26 -4 -13 -1 -24 7 -29 10 -6
8 -9 -8 -9 -16 0 -21 4 -17 15 8 20 -20 77 -45 93 -17 10 -21 10 -21 -2 0 -10
-11 -13 -35 -11 -39 2 -61 15 -27 15 12 0 22 5 22 10 0 17 -35 11 -51 -8 -10
-12 -13 -25 -8 -38 4 -10 8 -13 8 -6 1 17 28 15 34 -2 3 -8 1 -17 -6 -20 -7
-3 -3 -5 8 -5 11 1 23 1 28 0 4 0 10 -1 13 0 7 1 33 -33 34 -44 0 -5 -7 -1
-16 8 -9 9 -23 14 -30 11 -8 -3 -14 -1 -14 5 0 6 -4 8 -8 5 -5 -3 -21 2 -36
10 -16 7 -34 14 -41 14 -7 0 -16 6 -18 13 -4 9 -8 9 -15 -2 -8 -10 -18 -2 -48
37 -34 44 -89 81 -101 68 -3 -2 5 -7 16 -11 19 -6 38 -41 28 -52 -12 -11 -47
10 -47 28 0 10 -4 19 -9 19 -13 0 -32 -26 -24 -33 3 -4 -1 -7 -10 -7 -8 0 -22
-2 -30 -6 -9 -3 -20 7 -31 31 -10 20 -24 39 -32 42 -17 6 -18 29 -2 39 6 4 8
3 4 -4 -3 -6 -2 -13 4 -17 6 -4 10 6 10 24 0 31 14 49 25 31 10 -16 25 -12 19
5 -5 12 -18 14 -60 11 -41 -4 -54 -1 -54 9 0 8 -5 17 -11 20 -6 4 -9 -4 -7
-22 2 -18 -1 -27 -9 -26 -7 2 -13 -2 -13 -7 0 -5 7 -10 16 -10 8 0 12 -5 9
-10 -6 -10 -45 -7 -65 5 -6 3 -7 0 -4 -9 3 -9 12 -16 20 -16 8 0 16 -16 20
-40 4 -22 10 -40 15 -40 5 0 9 5 9 11 0 8 5 7 15 -1 9 -7 19 -10 23 -5 4 4 -8
19 -25 34 -37 31 -44 48 -13 29 17 -11 22 -10 29 1 6 9 11 10 15 2 4 -6 4 -15
1 -21 -3 -5 3 -10 14 -10 12 0 21 -7 21 -15 0 -8 -6 -15 -14 -15 -7 0 -17 -10
-21 -22 -4 -14 -8 -18 -12 -10 -7 17 -43 15 -43 -2 0 -8 5 -18 10 -21 19 -12
-1 -25 -36 -25 -24 0 -37 5 -41 18 -7 18 -33 48 -33 37 0 -4 -7 1 -16 9 -8 9
-22 16 -30 16 -8 0 -14 7 -14 15 0 8 5 15 10 15 6 0 10 -5 10 -11 0 -8 5 -8
15 1 17 14 21 35 5 25 -5 -3 -10 -1 -10 4 0 6 7 11 15 11 8 0 15 4 15 8 0 15
-58 42 -90 42 -29 0 -65 23 -65 41 0 4 -3 11 -7 15 -4 4 0 13 10 20 16 13 16
13 -1 14 -11 0 -17 6 -14 13 2 6 15 10 28 9 29 -4 50 -22 26 -22 -22 0 -22
-20 1 -22 9 0 22 -2 27 -3 6 -2 16 -3 23 -4 7 0 11 -5 7 -10 -3 -6 4 -15 15
-21 11 -6 18 -15 15 -21 -4 -5 -1 -9 4 -9 15 0 14 27 -1 33 -10 3 -10 9 1 30
11 21 18 24 32 17 19 -11 35 2 24 20 -3 6 1 13 9 16 9 3 16 13 16 21 0 8 -4
11 -10 8 -5 -3 -10 -1 -10 4 0 19 27 12 43 -11 l16 -23 7 23 c6 22 44 32 44
11 0 -5 5 -7 10 -4 6 4 7 11 4 17 -4 7 4 8 25 3 17 -4 31 -3 32 2 0 4 2 17 4
27 4 21 -13 42 -32 40 -7 -1 -34 -3 -60 -4 l-48 -3 40 -4 c63 -5 85 -12 85
-27 0 -10 -20 -12 -87 -9 -49 1 -98 5 -110 8 -28 7 -31 -11 -3 -18 21 -5 28
-37 9 -37 -6 0 -9 -9 -6 -20 5 -21 -7 -28 -18 -10 -3 6 -17 10 -31 10 -23 0
-24 1 -10 16 9 8 16 21 16 28 0 19 -36 48 -57 46 -43 -5 -84 1 -78 10 3 6 -1
10 -9 10 -9 0 -16 -6 -17 -12 0 -10 -2 -10 -6 0 -5 14 -23 16 -23 3 0 -5 7
-16 14 -24 8 -8 14 -24 13 -36 -1 -23 -3 -24 -32 -11 -17 7 -17 9 -2 9 18 1
25 31 7 31 -5 0 -10 6 -10 14 0 17 -34 28 -77 26 -18 -1 -33 3 -33 9 0 6 5 11
10 11 6 0 10 4 10 9 0 5 -11 4 -25 -2 -14 -7 -25 -15 -25 -19 0 -5 -5 -8 -11
-8 -5 0 -7 5 -3 11 4 7 -3 10 -22 7 -15 -1 -29 2 -31 7 -1 6 11 11 29 12 17 1
34 7 38 13 5 7 25 8 64 2 31 -5 68 -7 81 -4 19 3 25 0 25 -14 0 -18 2 -18 18
2 12 15 43 26 105 39 48 10 90 22 93 26 3 5 10 9 15 9 6 0 7 -4 4 -10z m-925
-365 c11 -13 10 -14 -4 -9 -9 3 -23 3 -32 0 -14 -5 -14 -8 0 -21 8 -8 21 -15
29 -15 8 0 17 -7 21 -15 3 -10 -1 -15 -13 -15 -10 0 -24 7 -31 15 -14 17 -35
21 -24 4 7 -12 -12 -29 -34 -29 -8 0 -11 7 -8 18 4 10 0 26 -7 36 -12 16 -16
17 -38 5 l-24 -14 27 -3 c21 -3 26 -8 24 -27 -1 -13 -13 -33 -27 -45 l-24 -21
24 7 c15 4 21 2 17 -4 -3 -6 -2 -13 3 -16 5 -3 11 3 14 14 3 11 10 20 16 20 8
0 9 -6 2 -19 -8 -14 -6 -23 9 -36 11 -10 17 -21 15 -25 -3 -4 2 -14 11 -21 11
-9 14 -22 10 -42 -4 -20 -2 -27 7 -24 6 2 12 19 13 39 1 37 10 58 25 58 11 0
0 -84 -13 -88 -11 -5 -11 -32 0 -32 5 0 8 -25 7 -55 -1 -47 1 -55 17 -55 11 0
18 -7 18 -20 0 -22 1 -23 24 -14 13 5 14 9 5 20 -9 11 -6 14 17 14 16 0 39 3
51 6 16 4 25 1 29 -10 9 -23 -2 -32 -20 -17 -9 7 -17 8 -20 2 -3 -5 7 -12 23
-16 16 -3 31 -14 34 -25 3 -12 0 -17 -8 -14 -7 3 -24 -9 -38 -25 -27 -33 -39
-39 -34 -18 1 6 -7 12 -17 12 -25 0 -34 -25 -9 -26 14 0 15 -2 3 -7 -8 -4 -16
-22 -17 -40 -1 -33 -1 -33 20 -15 12 9 28 24 35 32 10 13 12 11 12 -12 0 -15
4 -27 10 -27 5 0 7 13 4 30 -7 34 1 38 27 14 13 -11 16 -25 12 -50 -4 -22 -2
-34 6 -34 6 0 11 9 11 21 0 11 5 17 10 14 16 -10 11 -43 -7 -48 -14 -4 -12 -5
5 -6 21 -1 33 -21 12 -21 -5 0 -6 -8 -3 -17 5 -12 2 -15 -9 -11 -8 4 -21 2
-29 -4 -11 -8 -10 -9 4 -4 10 3 26 -3 37 -14 21 -21 35 -27 25 -10 -3 6 -1 10
4 10 6 0 11 5 11 11 0 6 -9 8 -22 3 l-21 -6 21 27 c12 15 22 35 23 44 0 10 2
12 6 4 2 -7 11 -13 19 -13 8 0 14 -6 13 -12 -4 -25 13 -68 27 -68 8 0 14 -8
14 -18 0 -34 107 -91 129 -69 8 8 11 6 11 -7 0 -12 5 -16 15 -12 8 3 15 1 15
-4 0 -16 51 -57 109 -87 31 -15 64 -36 75 -45 11 -10 29 -21 40 -24 11 -4 26
-13 34 -21 8 -8 21 -12 29 -9 8 3 11 2 8 -3 -3 -6 3 -14 12 -20 10 -5 15 -13
10 -17 -4 -4 -15 0 -24 8 -10 9 -29 19 -41 23 -13 4 -67 32 -120 62 -171 97
-246 138 -272 149 -14 6 -45 20 -70 32 -25 12 -48 22 -52 22 -4 0 -41 16 -82
35 -41 19 -79 35 -84 35 -5 0 -22 7 -38 15 -16 8 -88 33 -159 55 -140 44 -193
47 -258 14 -28 -15 -32 -14 -91 14 -120 59 -204 83 -336 94 -120 10 -129 12
-228 60 -108 52 -115 59 -127 134 -5 34 -3 32 12 -14 20 -58 58 -88 100 -77
17 4 23 1 23 -10 0 -25 46 -41 67 -24 16 13 17 12 4 -3 -12 -16 -11 -18 12
-18 14 0 29 -5 33 -11 3 -6 19 -9 35 -5 15 3 30 2 33 -2 3 -5 21 -6 40 -4 20
2 33 8 31 13 -7 10 55 -10 73 -24 8 -6 12 -5 12 4 0 12 2 12 9 1 6 -11 10 -10
15 4 6 15 9 16 16 4 8 -12 10 -12 16 3 3 9 1 24 -6 32 -13 15 -4 39 11 30 5
-4 9 -2 9 3 0 20 -40 20 -50 1 -6 -10 -19 -19 -30 -19 -10 0 -22 -4 -25 -10
-3 -5 -12 -10 -18 -10 -7 0 0 10 14 23 15 12 29 30 32 40 4 9 13 17 22 17 8 0
15 4 15 9 0 5 3 16 6 24 4 10 -4 21 -22 30 l-27 14 29 7 29 8 -28 15 c-16 8
-35 12 -43 9 -8 -3 -13 -2 -10 2 3 5 -11 16 -29 26 -19 11 -32 23 -29 28 3 5
12 4 20 -2 21 -18 40 -7 21 12 -15 15 -14 17 9 22 14 4 31 2 38 -3 9 -8 18 -6
32 4 18 13 18 14 1 15 -10 0 -20 7 -23 15 -4 8 -11 12 -17 8 -6 -4 -7 -1 -2 7
5 8 21 10 53 6 82 -11 455 81 509 126 7 5 20 7 30 4 10 -3 36 1 58 9 22 8 41
14 41 15 1 0 7 -7 14 -15z m-985 -834 c-3 -5 -1 -12 5 -16 5 -3 10 1 10 10 0
14 6 16 27 10 15 -3 30 -11 34 -16 3 -6 11 -3 19 6 11 13 29 15 114 10 113 -6
155 -12 204 -27 40 -12 40 -7 -12 -158 -46 -132 -67 -180 -78 -180 -5 0 -7 4
-3 9 3 5 -3 17 -12 27 -17 17 -17 18 0 11 11 -4 17 -2 17 9 0 8 5 12 10 9 6
-3 10 0 10 8 0 10 -7 13 -20 10 -11 -3 -20 -9 -20 -14 0 -5 -7 -9 -15 -9 -13
0 -14 -4 -5 -20 10 -18 7 -24 -12 -21 -7 1 -4 -26 8 -86 6 -33 21 -28 34 13 7
19 14 33 17 30 10 -10 -42 -126 -57 -126 -12 0 -12 2 -2 9 11 6 9 23 -10 87
-26 88 -50 130 -68 119 -9 -6 -8 -10 4 -17 17 -10 22 -38 6 -38 -5 0 -13 7
-18 17 -9 15 -11 14 -20 -3 -11 -21 -10 -83 2 -102 4 -7 4 -16 1 -22 -3 -5 -1
-10 4 -10 6 0 11 -4 11 -10 0 -5 -7 -10 -15 -10 -8 0 -15 7 -15 15 0 8 -9 19
-19 25 -26 14 -36 13 -23 -2 6 -7 12 -33 14 -58 3 -42 6 -46 48 -67 l45 -23
18 21 c22 28 22 19 -4 -36 -22 -47 -45 -72 -57 -61 -4 4 4 16 18 27 l25 20
-25 -3 c-20 -2 -25 -8 -25 -33 0 -19 -10 -40 -27 -59 l-28 -29 0 26 c0 16 8
31 20 37 24 13 26 30 5 30 -18 0 -20 16 -2 23 9 4 8 8 -3 16 -18 13 -46 9 -43
-5 3 -17 -26 -12 -32 5 -4 9 -10 35 -14 57 -7 37 -6 41 11 36 21 -5 25 26 6
47 -10 11 -10 14 -1 18 8 3 5 12 -11 26 -35 34 -40 57 -11 57 13 0 27 5 30 10
9 14 55 12 55 -2 0 -7 7 0 15 15 8 15 11 35 8 44 -4 9 1 21 12 29 14 10 16 17
8 25 -7 7 -8 21 -3 40 5 16 6 29 3 29 -3 0 3 12 12 28 10 15 12 22 6 16 -16
-14 -61 24 -61 51 0 12 -5 15 -16 11 -9 -4 -23 -1 -30 5 -11 9 -14 8 -14 -5 0
-9 -3 -16 -6 -16 -13 0 -54 46 -54 60 0 13 -1 13 -10 0 -8 -13 -10 -12 -10 3
0 14 -7 17 -35 14 -44 -5 -49 -10 -23 -26 11 -7 17 -8 13 -2 -3 7 2 11 14 11
18 0 19 -3 10 -30 -13 -35 -15 -36 -36 -15 -21 22 -25 14 -12 -24 6 -18 9 -34
7 -37 -5 -4 -48 122 -48 140 0 4 15 6 33 2 17 -3 46 -2 62 3 17 5 31 10 33 10
2 1 1 -3 -3 -8z m678 -157 c41 -30 51 -34 58 -21 12 21 60 31 70 15 7 -10 9
-9 9 5 0 11 8 17 24 17 33 0 57 -10 50 -21 -3 -5 2 -9 11 -9 9 0 13 5 9 11 -4
8 1 9 17 4 50 -14 79 -28 74 -35 -3 -5 4 -6 15 -3 11 3 35 0 53 -7 85 -34 454
-215 467 -229 3 -3 28 -18 55 -33 28 -15 49 -32 47 -38 -1 -7 2 -9 8 -5 10 6
100 -44 100 -56 0 -8 -73 -18 -80 -11 -3 3 1 7 8 9 10 4 9 9 -4 24 -9 10 -21
16 -25 13 -5 -3 -21 8 -35 25 -27 33 -47 41 -38 16 4 -8 12 -15 20 -15 8 0 14
-5 14 -11 0 -6 -7 -9 -15 -5 -14 5 -13 2 0 -24 9 -18 23 -30 35 -30 27 0 25
-10 -7 -45 -16 -16 -27 -34 -25 -38 1 -5 -3 -15 -9 -23 -10 -12 -9 -13 5 -8 9
3 16 13 16 21 0 10 7 14 20 10 11 -3 20 -4 20 -2 0 2 3 12 7 22 6 16 5 17 -12
3 -16 -13 -18 -13 -13 0 2 8 15 17 28 18 13 2 29 11 35 19 9 12 13 11 29 -6
11 -12 14 -21 8 -21 -5 0 -8 -9 -5 -20 7 -25 15 -25 37 -1 16 17 52 21 75 6 6
-3 11 -1 11 5 0 16 46 -13 183 -118 155 -118 175 -131 268 -171 131 -56 173
-110 98 -126 -17 -4 -35 -15 -42 -26 -6 -10 -17 -19 -24 -19 -7 0 -13 -4 -13
-9 0 -10 -38 -24 -57 -22 -8 1 -10 -5 -7 -14 5 -13 0 -15 -29 -13 -20 1 -39
-1 -43 -5 -4 -4 0 -7 9 -7 15 0 15 -2 -1 -17 -34 -33 -81 -63 -98 -63 -9 0
-37 -15 -63 -33 -25 -18 -66 -41 -91 -51 -25 -10 -83 -38 -130 -61 -47 -23
-96 -46 -110 -50 -23 -7 -124 -51 -176 -76 -11 -6 -24 -9 -30 -7 -14 4 -57
-29 -50 -40 10 -17 -323 -96 -449 -106 -33 -3 -52 -3 -42 0 9 3 17 9 17 12 0
4 15 7 33 6 47 -2 137 13 270 46 125 31 146 40 167 65 12 14 11 16 -13 10 -17
-5 -33 -2 -44 6 -14 12 -16 12 -11 -2 4 -10 -3 -19 -21 -27 -33 -14 -168 -43
-200 -42 -13 0 -29 -4 -35 -9 -10 -8 -58 -18 -123 -24 -12 -1 -28 -8 -35 -15
-14 -14 -32 -16 -23 -2 8 12 -156 2 -172 -11 -7 -6 -13 -6 -17 -1 -3 5 -16 7
-29 5 -14 -3 -31 2 -40 11 -20 20 -31 20 -23 1 5 -13 0 -15 -29 -9 -28 5 -35
3 -35 -9 0 -13 -16 -15 -112 -11 -188 7 -259 12 -264 16 -2 3 -8 38 -12 78
l-7 73 -180 0 -180 0 165 7 c91 4 171 8 178 9 8 0 12 10 10 24 -2 15 -9 21
-23 19 -20 -2 -20 -2 1 13 18 13 20 21 13 68 -15 106 -11 160 16 199 15 23 27
58 31 95 7 54 6 57 -9 41 -10 -9 -17 -23 -17 -30 0 -7 -7 -31 -14 -53 -15 -42
-35 -58 -37 -28 -4 76 -10 117 -20 129 -13 15 -14 61 -4 152 6 48 13 66 29 78
76 52 129 83 136 79 5 -3 12 4 15 16 4 12 23 42 42 68 31 40 65 106 186 361
40 86 69 130 84 130 9 0 38 -16 66 -36z m1768 -922 c-56 -41 -295 -188 -386
-237 -128 -69 -326 -155 -472 -205 -107 -37 -143 -47 -132 -35 6 5 188 71 239
87 106 31 508 237 493 252 -4 4 0 4 9 1 11 -4 21 1 30 14 7 12 19 21 26 21 7
0 56 29 109 65 53 36 99 63 102 60 2 -3 -6 -13 -18 -23z"/>
<path d="M6051 8681 c-11 -7 -10 -12 8 -22 25 -16 27 -29 5 -29 -23 0 -8 -39
28 -74 22 -20 27 -30 19 -36 -8 -4 2 -13 28 -24 23 -8 41 -18 41 -21 0 -2 -6
-2 -14 1 -8 3 -17 1 -20 -4 -3 -5 21 -16 53 -24 49 -12 60 -12 71 0 11 12 9
13 -10 7 -19 -6 -22 -4 -17 9 8 19 -13 22 -31 4 -10 -10 -11 -5 -6 20 4 22 3
32 -5 32 -7 0 -9 -4 -6 -10 3 -5 -1 -10 -9 -10 -17 0 -11 28 8 43 7 5 2 7 -11
4 -19 -4 -23 -1 -23 21 1 22 2 24 10 10 6 -10 18 -14 30 -11 14 4 20 0 20 -11
0 -10 5 -14 11 -11 6 4 8 9 5 12 -3 3 -1 14 5 25 7 14 6 22 -5 33 -19 20 -34
19 -39 -2 -4 -15 -5 -15 -6 -2 0 9 -13 21 -27 28 -25 11 -26 11 -20 -14 4 -14
3 -25 -1 -25 -8 0 -38 43 -34 48 2 3 -39 42 -43 42 -1 0 -7 -4 -15 -9z"/>
<path d="M4125 3863 c-7 -7 -16 -9 -21 -5 -4 4 2 -10 13 -30 19 -32 20 -38 7
-49 -11 -9 -18 -9 -26 -1 -9 9 -8 12 5 12 19 0 23 15 7 25 -5 3 -10 2 -10 -4
0 -6 -12 -14 -27 -17 -16 -4 -31 -11 -34 -16 -3 -5 -14 -2 -23 7 -13 14 -19
15 -31 5 -19 -16 -19 -40 0 -40 8 0 15 -8 15 -18 0 -26 10 -33 31 -22 45 25
27 -34 -20 -63 -25 -16 -25 -16 -3 -17 12 0 22 -4 22 -10 0 -5 -9 -10 -19 -10
-10 0 -21 -6 -24 -12 -3 -9 9 -13 40 -13 28 0 48 -6 53 -15 6 -8 10 -10 10 -5
0 6 -5 16 -10 21 -7 7 -7 19 -1 35 5 13 10 18 10 12 1 -18 21 -16 21 2 0 12 3
12 18 -2 11 -11 16 -27 13 -42 -3 -18 0 -23 10 -19 39 15 61 19 56 12 -3 -5 1
-15 9 -22 8 -7 14 -11 15 -10 11 59 1 103 -15 61 -5 -12 -9 -14 -18 -5 -9 9
-7 16 10 28 12 8 20 20 16 25 -3 6 -12 5 -22 -3 -13 -12 -14 -10 -4 9 16 30
15 64 -1 57 -7 -2 -23 7 -36 21 -26 31 -24 56 3 30 15 -15 19 -16 26 -4 6 8 3
20 -6 30 -9 10 -11 19 -6 23 6 3 12 0 15 -6 2 -7 8 -9 13 -5 5 4 2 12 -6 17
-19 12 -22 12 -40 0 -13 -9 -13 -12 3 -21 21 -12 23 -31 2 -23 -8 3 -17 15
-21 26 -7 23 23 61 43 53 8 -2 11 0 8 5 -8 13 -55 8 -70 -7z"/>
<path d="M4899 3343 c-6 -7 -15 -10 -20 -7 -5 3 -18 0 -29 -6 -17 -9 -18 -15
-10 -31 14 -26 3 -62 -17 -55 -8 3 -24 1 -35 -5 -16 -9 -24 -6 -44 12 -13 13
-24 17 -24 10 0 -7 -5 -9 -11 -5 -8 4 -9 0 -4 -15 9 -29 0 -26 -33 9 -25 25
-36 30 -73 28 -24 -1 -50 1 -56 5 -9 5 -13 2 -13 -8 0 -9 -4 -13 -10 -10 -6 3
-10 -4 -10 -17 0 -16 3 -19 9 -10 7 11 9 11 14 -2 5 -13 -1 -16 -28 -16 -39 0
-48 21 -17 39 14 8 14 10 2 11 -18 0 -51 -35 -43 -44 4 -3 -1 -6 -10 -6 -9 0
-17 -4 -17 -8 0 -10 118 -5 150 7 14 5 40 12 57 15 29 5 32 3 30 -16 -2 -22
32 -36 44 -17 3 6 23 12 44 15 21 3 45 10 53 16 9 8 16 8 20 2 8 -12 53 -13
46 -2 -3 4 2 8 11 8 9 0 13 5 10 10 -4 6 -11 7 -17 4 -7 -4 -8 -2 -4 4 9 15
38 3 32 -14 -3 -7 4 -23 14 -36 16 -19 19 -20 20 -5 0 9 -4 17 -10 17 -5 0
-10 7 -10 16 0 11 6 13 19 9 11 -3 22 -1 26 5 3 5 -2 10 -12 10 -11 0 -14 3
-7 8 17 12 24 41 15 65 -10 26 -35 31 -52 10z"/>
<path d="M4519 3156 c-3 -15 -13 -20 -39 -22 -61 -3 -66 -4 -53 -12 6 -4 15
-20 18 -35 6 -24 5 -28 -10 -25 -10 2 -20 -3 -22 -9 -3 -8 4 -13 15 -13 11 0
27 -3 35 -6 10 -3 14 0 14 12 -1 9 4 19 11 21 7 3 10 -1 6 -11 -3 -9 -1 -16 4
-16 16 0 24 18 12 25 -13 8 -13 25 0 25 6 0 14 -8 17 -17 12 -33 43 -44 44
-15 0 10 3 12 6 5 2 -7 11 -13 19 -13 9 0 13 4 9 9 -3 6 9 5 30 0 42 -12 76
-4 69 16 -7 18 15 30 29 16 9 -9 9 -14 -2 -20 -7 -5 -9 -11 -4 -14 13 -8 29 5
38 32 5 16 4 21 -4 17 -6 -4 -11 -1 -11 7 0 10 7 13 20 10 16 -4 20 -1 19 18
0 13 -3 18 -6 12 -6 -17 -18 -16 -37 3 -12 12 -26 14 -57 9 -23 -4 -38 -10
-33 -14 5 -3 10 -14 12 -25 3 -14 -1 -17 -13 -12 -9 3 -18 6 -19 6 -2 0 -1 12
2 28 4 26 4 26 -12 7 -15 -19 -17 -19 -30 -2 -10 13 -15 15 -18 5 -3 -7 7 -21
21 -32 17 -12 20 -16 7 -12 -11 4 -23 2 -26 -5 -4 -6 -28 -13 -54 -14 -40 -3
-46 -1 -46 16 0 21 16 26 23 7 8 -22 29 7 25 33 -4 21 -5 21 -9 5z"/>
<path d="M4505 3006 c-27 -22 -31 -22 -37 -8 -5 13 -7 12 -7 -6 -1 -15 6 -26
17 -29 13 -3 18 -14 19 -39 1 -19 -3 -34 -8 -34 -5 0 -9 13 -9 29 0 16 -7 34
-15 41 -19 15 -32 6 -18 -12 6 -7 11 -20 11 -28 3 -85 6 -92 30 -101 16 -6 29
-6 38 2 11 9 14 8 14 -5 0 -9 -4 -16 -9 -16 -5 0 -7 -13 -5 -30 3 -17 1 -30
-5 -30 -6 0 -11 -9 -11 -20 0 -11 -5 -20 -11 -20 -5 0 -7 -4 -4 -10 3 -5 19
-7 35 -3 26 5 30 2 30 -15 0 -35 79 -64 107 -40 19 15 16 31 -4 24 -9 -4 -20
-1 -25 6 -6 10 -8 10 -8 1 0 -19 -37 -16 -44 3 -10 27 -7 37 9 24 12 -10 14
-7 13 24 -1 20 -6 36 -12 36 -6 1 0 7 14 15 25 14 25 15 3 21 -12 3 -24 17
-27 30 -4 13 -10 23 -14 23 -4 -1 -14 -1 -22 0 -12 1 -13 3 -1 10 11 7 8 13
-13 26 -15 10 -25 24 -22 31 3 7 0 15 -7 18 -9 3 -8 7 3 15 13 9 12 12 -5 25
-21 16 -18 18 30 18 17 -1 22 2 12 4 -12 4 -16 12 -12 25 8 24 6 24 -30 -5z"/>
</g>
</svg>
